<?xml version="1.0" encoding="UTF-8" standalone="no"?>
<!-- Created with Inkscape (http://www.inkscape.org/) -->

<svg
   xmlns:dc="http://purl.org/dc/elements/1.1/"
   xmlns:cc="http://creativecommons.org/ns#"
   xmlns:rdf="http://www.w3.org/1999/02/22-rdf-syntax-ns#"
   xmlns:svg="http://www.w3.org/2000/svg"
   xmlns="http://www.w3.org/2000/svg"
   xmlns:sodipodi="http://sodipodi.sourceforge.net/DTD/sodipodi-0.dtd"
   xmlns:inkscape="http://www.inkscape.org/namespaces/inkscape"
   width="512"
   height="512"
   id="svg4134"
   version="1.1"
   inkscape:version="0.91 r13725"
   sodipodi:docname="pint.svg">
  <defs
     id="defs4136">
    <inkscape:path-effect
       effect="spiro"
       id="path-effect4676"
       is_visible="true" />
  </defs>
  <sodipodi:namedview
     id="base"
     pagecolor="#ffffff"
     bordercolor="#666666"
     borderopacity="1.0"
     inkscape:pageopacity="0.0"
     inkscape:pageshadow="2"
     inkscape:zoom="1.4"
     inkscape:cx="97.367426"
     inkscape:cy="294.06354"
     inkscape:document-units="px"
     inkscape:current-layer="layer1"
     showgrid="false"
     inkscape:window-width="1855"
     inkscape:window-height="1056"
     inkscape:window-x="65"
     inkscape:window-y="24"
     inkscape:window-maximized="1"
     showguides="true"
     inkscape:guide-bbox="true">
    <sodipodi:guide
       position="306.78571,382.5"
       orientation="0,1"
       id="guide7110" />
  </sodipodi:namedview>
  <metadata
     id="metadata4139">
    <rdf:RDF>
      <cc:Work
         rdf:about="">
        <dc:format>image/svg+xml</dc:format>
        <dc:type
           rdf:resource="http://purl.org/dc/dcmitype/StillImage" />
        <dc:title />
      </cc:Work>
    </rdf:RDF>
  </metadata>
  <g
     inkscape:label="Layer 1"
     inkscape:groupmode="layer"
     id="layer1"
     transform="translate(0,-540.36218)">
    <rect
       style="fill:#ffffff;fill-opacity:1;stroke:none"
       id="rect4708"
       width="472.85712"
       height="473.51569"
       x="19.571442"
       y="559.60431"
       ry="29.635893" />
    <rect
       ry="26.168739"
       y="587.30298"
       x="47.231609"
       height="418.11832"
       width="417.53677"
       id="rect4723"
       style="fill:#603814;fill-opacity:1;stroke:none" />
    <path
       id="path4153"
       style="fill:#ffffff;fill-opacity:1"
       d="m 125.46276,669.68021 c 62.0372,-0.88946 125.35461,-0.88946 181.03811,-0.7143 13.96122,30.19021 13.0639,33.55032 16.05984,67.41856 -69.32151,1.08186 -156.77511,3.15856 -219.01198,3.14944 7.0279,-33.84685 3.09874,-28.80788 21.91403,-69.8537 z M 353.81001,834.2157 c 9.48626,-39.67634 3.72212,-86.97346 -3.25448,-121.30114 69.83435,0.83766 66.11571,119.93546 3.25448,121.30114 z m -5.19953,32.37422 C 464.3042,862.09365 457.2216,681.47793 338.6526,683.96704 l -9.1269,-20.22695 -9.12691,-20.22694 -108.27382,0 -108.27382,0 -8.419516,20.31557 c -15.374563,37.09749 -20.298378,69.3773 -20.360351,133.47934 1.021749,59.41057 12.534106,107.44762 41.222607,151.00628 62.96129,0.93829 118.15053,0.8966 181.11604,0.8966 30.422,-38.45324 41.60008,-57.90705 51.20055,-82.62102 z"
       inkscape:connector-curvature="0"
       sodipodi:nodetypes="ccccccccccccccscccc" />
  </g>
</svg>
