<?xml version="1.0" encoding="UTF-8" standalone="no"?>
<!-- Created with Inkscape (http://www.inkscape.org/) -->

<svg
   xmlns:dc="http://purl.org/dc/elements/1.1/"
   xmlns:cc="http://creativecommons.org/ns#"
   xmlns:rdf="http://www.w3.org/1999/02/22-rdf-syntax-ns#"
   xmlns:svg="http://www.w3.org/2000/svg"
   xmlns="http://www.w3.org/2000/svg"
   xmlns:sodipodi="http://sodipodi.sourceforge.net/DTD/sodipodi-0.dtd"
   xmlns:inkscape="http://www.inkscape.org/namespaces/inkscape"
   width="512"
   height="512"
   id="svg4134"
   version="1.1"
   inkscape:version="0.48.4 r9939"
   sodipodi:docname="pint.svg">
  <defs
     id="defs4136">
    <inkscape:path-effect
       effect="spiro"
       id="path-effect4676"
       is_visible="true" />
  </defs>
  <sodipodi:namedview
     id="base"
     pagecolor="#ffffff"
     bordercolor="#666666"
     borderopacity="1.0"
     inkscape:pageopacity="0.0"
     inkscape:pageshadow="2"
     inkscape:zoom="1.4"
     inkscape:cx="328.15492"
     inkscape:cy="303.26631"
     inkscape:document-units="px"
     inkscape:current-layer="layer1"
     showgrid="false"
     inkscape:window-width="1855"
     inkscape:window-height="1056"
     inkscape:window-x="65"
     inkscape:window-y="24"
     inkscape:window-maximized="1" />
  <metadata
     id="metadata4139">
    <rdf:RDF>
      <cc:Work
         rdf:about="">
        <dc:format>image/svg+xml</dc:format>
        <dc:type
           rdf:resource="http://purl.org/dc/dcmitype/StillImage" />
        <dc:title></dc:title>
      </cc:Work>
    </rdf:RDF>
  </metadata>
  <g
     inkscape:label="Layer 1"
     inkscape:groupmode="layer"
     id="layer1"
     transform="translate(0,-540.36218)">
    <rect
       style="fill:#ffffff;fill-opacity:1;stroke:none"
       id="rect4708"
       width="472.85712"
       height="473.51569"
       x="19.571442"
       y="559.60431"
       ry="29.635893" />
    <rect
       ry="26.168739"
       y="587.30298"
       x="47.231609"
       height="418.11832"
       width="417.53677"
       id="rect4723"
       style="fill:#603814;fill-opacity:1;stroke:none" />
    <path
       id="path4153"
       style="fill:#ffffff;fill-opacity:1"
       d="m 101.33393,725.10141 c 1.23406,-7.38425 7.56969,-25.04449 14.07915,-39.24498 l 11.8354,-25.81908 85.16191,0 85.1619,0 5.85008,20.44807 c 3.21754,11.24645 7.07208,28.90669 8.56563,39.245 l 2.71557,18.79691 -107.80669,0 -107.806698,0 z M 349.5243,832.78713 c 5.20054,-36.8192 5.15069,-101.25918 1.03123,-119.87257 46.66774,-13.4545 59.45134,3.46044 60.09718,46.47632 0.50148,33.40031 -14.40145,56.84241 -30.51177,63.67787 -16.11817,6.83879 -30.49638,11.40273 -30.61664,9.71838 z m -0.91382,33.80279 c 19.9571,0 55.779,-12.39206 68.05995,-25.43075 15.93787,-16.92122 22.01759,-45.44204 19.8266,-93.00958 -1.34799,-29.26638 -3.6009,-34.42344 -10.84628,-46.59227 -30.39439,-34.44411 -54.85876,-32.7395 -86.99815,-17.59028 l -9.1269,-20.22695 -9.12691,-20.22694 -108.27382,0 -108.27382,0 -8.419516,20.31557 c -15.374563,37.09749 -20.298378,69.3773 -20.360351,133.47934 1.021749,59.41057 12.534106,107.44762 41.222607,151.00628 62.96129,0.93829 118.15053,0.8966 181.11604,0.8966 30.422,-38.45324 41.60008,-57.90705 51.20055,-82.62102 z"
       inkscape:connector-curvature="0" />
  </g>
</svg>
