<?xml version="1.0" encoding="UTF-8" standalone="no"?>
<svg
   xmlns:dc="http://purl.org/dc/elements/1.1/"
   xmlns:cc="http://creativecommons.org/ns#"
   xmlns:rdf="http://www.w3.org/1999/02/22-rdf-syntax-ns#"
   xmlns:svg="http://www.w3.org/2000/svg"
   xmlns="http://www.w3.org/2000/svg"
   version="1.1"
   id="svg4310"
   viewBox="0 0 48 48.000001"
   height="48"
   width="48">
  <defs
     id="defs4312" />
  <metadata
     id="metadata4315">
    <rdf:RDF>
      <cc:Work
         rdf:about="">
        <dc:format>image/svg+xml</dc:format>
        <dc:type
           rdf:resource="http://purl.org/dc/dcmitype/StillImage" />
        <dc:title></dc:title>
      </cc:Work>
    </rdf:RDF>
  </metadata>
  <g
     transform="translate(0,-1004.3622)"
     id="layer1">
    <path
       d="m 21.123855,1037.7148 c -0.275448,6.958 -9.931295,4.2593 -9.591785,-0.2943 1.506789,-20.209 10.403285,-20.2044 9.591785,0.2943 z m 10.101521,-4.9473 c -3.566193,-0.3495 -4.130965,-4.1678 -5.173229,-6.8369 -0.0056,0.7227 1.146931,9.0282 -0.433665,9.8722 1.94499,-1.215 5.466065,-2.3462 5.606894,-3.0353 z m -2.428114,19.4515 c -1.027903,-0.2481 -1.530919,-0.6219 -1.843682,-1.3706 -0.595501,-1.4252 0.252112,-2.8844 1.849606,-3.1841 0.383961,-0.071 0.698109,-0.1518 0.698109,-0.1775 0,-0.026 -1.013808,-2.1201 -2.252905,-4.6544 -0.3531,-0.6828 -3.10788,-6.2235 -2.157799,-6.8143 -0.646334,0.019 -1.541306,-0.7598 -1.999544,-3.136 -0.958727,-4.9715 -2.059282,-12.2118 -1.966944,-12.94 l 0.09918,-0.7823 -0.584892,0.6404 c -3.484575,2.6527 -7.278553,0.285 -7.603492,-3.1958 -0.774426,0.214 -2.253498,1.5951 -2.615481,0.9089 -0.361982,-0.6863 1.200272,-1.2834 2.163006,-1.8991 -1.219139,-2.3937 -4.0326065,-7.1457 -4.0326065,-7.1457 l 6.8688655,-3.8255 c 0,0 2.653514,4.663 4.135365,6.8879 0.606472,-0.086 1.718772,-1.2179 2.152702,-0.5882 0.433932,0.6296 -0.715938,1.0244 -1.54525,1.5744 1.662335,1.784 2.173773,2.8052 2.005757,4.6872 2.201655,-0.6873 4.130775,-1.124 7.467143,1.8004 3.551054,3.1126 6.454492,6.1455 8.235668,8.4197 2.007549,2.5631 3.514449,2.9096 2.580786,5.6836 -1.297856,3.1387 -9.389931,5.3989 -9.787569,6.2363 -0.397638,0.8374 0.730817,1.1584 1.825552,3.4192 2.713558,5.6041 2.845861,5.9312 2.845861,7.0374 0,1.3262 -0.65076,2.0932 -2.026125,2.3881 -1.118607,0.2399 -3.573898,0.2562 -4.511315,0.03 z"
       style="fill:#000000"
       id="path3098" />
  </g>
</svg>
