<?xml version="1.0" encoding="UTF-8" standalone="no"?>
<svg
   xmlns:dc="http://purl.org/dc/elements/1.1/"
   xmlns:cc="http://creativecommons.org/ns#"
   xmlns:rdf="http://www.w3.org/1999/02/22-rdf-syntax-ns#"
   xmlns:svg="http://www.w3.org/2000/svg"
   xmlns="http://www.w3.org/2000/svg"
   viewBox="0 0 500 500"
   height="500"
   width="500"
   version="1.1"
   id="svg5927">
  <metadata
     id="metadata5933">
    <rdf:RDF>
      <cc:Work
         rdf:about="">
        <dc:format>image/svg+xml</dc:format>
        <dc:type
           rdf:resource="http://purl.org/dc/dcmitype/StillImage" />
        <dc:title></dc:title>
      </cc:Work>
    </rdf:RDF>
  </metadata>
  <defs
     id="defs5931" />
  <path
     id="path6477"
     d="m 174.4537,482.82047 c -5.95266,-7.07434 -5.32758,-11.42409 -5.32758,-11.42409 4.64152,-10.58742 6.32342,-13.49607 15.38199,-20.84745 l 8.38369,-6.80368 -0.16046,-54.26283 c -0.0883,-29.84456 -0.5221,-84.76278 -0.9641,-122.04049 l -0.80364,-67.77765 c -10.65308,20.79938 -24.69809,39.9593 -34.85173,61.01212 l -0.44118,1.08984 2.75727,0 2.75725,0 0,2.64697 0,2.64697 -5.95567,0 -5.95568,0 0,11.24961 0,11.24961 -5.95568,0 -5.95567,0 0,5.95567 0,5.95568 5.29393,0 5.29394,0 0,5.29394 0,5.29393 -5.29394,0 -5.29393,0 0,5.83217 0,5.83216 -12.50743,0.93771 c -6.87908,0.51575 -14.62146,0.69092 -17.20528,0.38928 l -4.69786,-0.54846 0,16.93954 0,16.93953 -5.293938,0 -5.293935,0 0,5.95568 0,5.95567 -17.867024,0 -17.867029,0 0,-17.20529 0,-17.20528 5.88316,0 5.88316,0 0.403387,-6.28655 0.403388,-6.28655 4.963063,-0.41077 4.963064,-0.41075 0,-10.50799 0,-10.50797 5.955675,0 5.955673,0 0,-5.95568 0,-5.95567 5.955676,0 5.95568,0 0,-5.95568 0,-5.95567 5.29393,0 5.29393,0 0,-7.94091 0,-7.9409 5.29394,0 5.29393,0 0,-1.56906 c 0,-0.86297 1.11707,-2.79857 2.48239,-4.30132 22.46446,-36.59781 38.51385,-65.12113 61.33748,-104.6405 l 2.45473,-2.16019 2.45472,-2.1602 5.00899,-0.87141 c 2.75493,-0.47927 6.57551,-1.48551 8.49018,-2.2361 l 3.4812,-1.36468 0.62162,-20.08816 c -0.29525,-15.63683 1.18931,-29.441298 11.55301,-40.705646 l 4.99572,-5.251594 -1.25717,-0.776975 c -0.69145,-0.427335 -2.50707,-3.540309 -4.03473,-6.917719 -5.44033,-11.63037 -1.69152,-47.328102 3.91396,-54.730335 4.22733,-4.4995413 7.84048,-2.833103 10.70146,1.275048 8.98897,14.86418 7.27501,37.829482 3.4749,52.968139 l -0.85916,3.006632 c 8.41283,-3.678469 18.41482,-2.742269 25.79375,0 l -0.92769,-3.006632 c -0.51023,-1.653647 -1.54283,-5.984469 -2.29467,-9.624049 0.24249,-16.015666 -3.72738,-32.962005 6.46289,-44.619138 4.48073,-3.988312 7.73084,-2.985942 10.72018,1.275048 7.86549,12.977976 7.72036,34.48679 4.34193,48.638025 -1.01807,3.63958 -2.89892,8.132939 -4.17969,9.985242 l -2.32864,3.367824 4.62186,4.519054 c 15.38955,15.065093 10.85292,41.961236 11.26754,63.522136 l 4.57774,0 4.57774,0 4.91033,2.50614 c 2.70069,1.37838 5.87391,3.61175 7.05162,4.96306 23.768,32.9939 38.77859,73.02604 63.24645,107.30331 l 4.05425,5.58512 16.89488,0.37056 16.89486,0.37056 0.3536,33.41797 0.3536,33.41796 -32.44808,0 -32.44807,0 -0.13168,-28.12403 c -0.0724,-15.46822 -0.3668,-30.74663 -0.65418,-33.95203 l -0.52251,-5.82802 -3.78038,-6.08334 C 333.07116,238.52923 323.78058,222.18541 311.40061,200.6322 l -0.34181,121.55652 -0.3418,121.55653 3.65051,2.54185 c 11.75204,9.3596 20.19406,16.42514 20.19406,32.4887 -0.69101,6.41204 -3.84585,7.89647 -7.49625,8.38976 -13.95543,2.57154 -25.93986,-0.62011 -38.51815,-6.56832 l -9.61861,-4.54857 -7.25581,-5.90994 -7.25581,-5.90994 0,10.44104 0,10.44105 -1.91238,1.58713 -1.91238,1.58713 -3.05068,-0.43247 -3.05069,-0.43246 -0.16012,-18.29185 -0.16011,-18.29184 -1.45085,-1.45085 -1.45085,-1.45085 -0.81436,2.12218 -0.81437,2.12219 -0.22163,17.62051 -0.22164,17.62051 -3.05068,0.43246 -3.05069,0.43247 -1.91238,-1.58713 -1.91238,-1.58713 0,-10.44105 0,-10.44104 -7.34302,5.98097 c -4.03866,3.28953 -10.14323,7.39529 -13.5657,9.12394 -3.42248,1.72864 -9.0451,4.09709 -12.49469,5.26323 -17.62312,4.96361 -25.46098,5.29786 -31.41364,-1.77646 z m 41.56111,-7.60978 c 0.78016,-0.4535 4.71553,-3.03875 8.74529,-5.745 l 7.32684,-4.92045 4.85463,-5.37348 c 2.67003,-2.95542 6.33531,-7.63542 8.14504,-10.40001 l 3.29042,-5.0265 0.93976,-61.21112 0.93974,-61.21112 -26.00689,0 -26.00688,0 0,58.80297 0,58.80298 2.87417,0.42291 2.87417,0.42292 0.52614,1.59832 0.52616,1.59832 -4.39294,1.8586 -4.39293,1.8586 -2.56797,2.88128 -2.56795,2.88127 11.73737,11.79202 11.73739,11.79202 z m 84.46706,-10.69838 c 6.36926,-6.29613 11.58048,-11.98982 11.58048,-12.65267 0,-0.66284 -1.04225,-2.04692 -2.31609,-3.07573 -1.27386,-1.02883 -4.29292,-2.75751 -6.70904,-3.84154 l -4.39293,-1.97094 0.52616,-1.59831 0.52615,-1.59833 2.87416,-0.42292 2.87417,-0.42291 0,-58.80298 0,-58.80297 -24.93554,0 -24.93553,0 -0.90666,47.31454 -0.90669,47.31454 0.88717,13.89658 0.88718,13.89658 4.36132,6.61741 c 2.39873,3.63958 6.63058,8.78815 9.40411,11.44126 2.77353,2.6531 8.3184,6.92353 12.32194,9.48986 l 7.27916,4.66603 z M 93.025809,337.20481 c 0.363958,0 0.661742,-0.29778 0.661742,-0.66174 0,-0.36396 -0.297784,-0.66174 -0.661742,-0.66174 -0.363958,0 -0.661742,0.29778 -0.661742,0.66174 0,0.36396 0.297784,0.66174 0.661742,0.66174 z m 290.530981,-9.26439 27.81949,0 -0.3572,-28.12402 -0.35719,-28.12403 -27.46229,-0.26006 -27.46229,-0.26008 0,28.3841 0,28.38409 z m -1.95811,-9.26438 -15.34244,0 0.36534,-20.18313 0.36534,-20.18312 3.97046,0 3.97045,0 0.37116,16.15772 0.37116,16.15774 10.21671,0.38581 10.2167,0.38582 0.41879,3.63958 0.41877,3.63958 z m -81.64042,-2.90619 4.82493,-0.40252 0.38305,-10.06229 0.38303,-10.0623 -6.80614,-11.77518 c -3.74337,-6.47635 -8.30216,-14.45525 -10.13063,-17.73087 -1.82848,-3.27562 -10.03535,-17.56924 -18.23751,-31.76361 -8.20215,-14.19436 -16.2335,-28.1902 -17.84742,-31.10186 -1.61393,-2.91167 -9.24464,-16.22585 -16.95712,-29.58706 l -14.02269,-24.29312 c -10.42839,0.26284 -12.90601,-0.42829 -23.29607,2.26432 l 9.04875,15.22006 c 4.97681,8.37103 21.43389,36.36271 36.57127,62.20373 15.13737,25.84102 30.90886,52.64156 35.04775,59.55676 4.1389,6.91521 9.48019,16.02986 11.86955,20.25478 l 4.34431,7.6817 z m -168.55143,-38.1218 5.95568,0 0,-5.29394 0,-5.29393 5.29393,0 5.29394,0 0,-2.04109 c 0,-1.1226 0.61876,-2.76041 1.37504,-3.63958 15.74663,-26.09053 27.20073,-46.27961 43.44859,-74.3901 l 1.74176,0 1.74176,0 0.41077,4.96307 0.41075,4.96306 11.12509,0 11.12509,0 -8.72027,-14.88919 c -4.79614,-8.18906 -10.49081,-18.01593 -12.65479,-21.83748 -2.164,-3.82156 -4.32437,-6.93113 -4.80082,-6.91015 -22.33432,32.16953 -38.56635,71.03751 -61.39772,104.84794 l -2.51427,3.63958 4.06058,0 4.06057,0 0,2.64697 0,2.64697 -5.95568,0 -5.95567,0 0,5.29393 0,5.29394 z m 233.27104,-11.91136 9.91107,0 -2.06536,-2.97784 c -18.73466,-31.28768 -34.37227,-58.95297 -53.99846,-92.40452 l -8.9917,-15.3116 -3.6986,-1.85579 -3.6986,-1.85578 -33.08709,-2.72277 -0.40453,-6.31469 -0.40454,-6.31469 c 43.26919,-76.961724 -79.29505,-67.40772 -31.44517,0.99257 l -0.41642,5.8184 -0.41643,5.81841 -4.26662,0.41213 -4.26662,0.41214 3.05145,4.8818 c 1.67831,2.68498 4.8373,8.15891 7.01997,12.16428 2.18267,4.00536 6.8017,12.19442 10.2645,18.1979 l 6.29601,10.91542 25.6921,0 25.6921,0 0,-4.63219 0,-4.6322 1.93866,0 1.93866,0 1.51456,2.97784 c 15.39983,27.18431 27.38337,47.77644 43.92998,76.43118 z m -237.90323,-2.64697 1.76464,0 -0.88231,-0.88232 -0.88233,-0.88231 -0.88233,0.88231 -0.88231,0.88232 z"
     style="fill:#000000" />
</svg>
